<?xml version="1.0" standalone="no"?>
<!DOCTYPE svg PUBLIC "-//W3C//DTD SVG 20010904//EN"
 "http://www.w3.org/TR/2001/REC-SVG-20010904/DTD/svg10.dtd">
<svg version="1.0" xmlns="http://www.w3.org/2000/svg"
 width="223.000000pt" height="223.000000pt" viewBox="0 0 223.000000 223.000000"
 preserveAspectRatio="xMidYMid meet">
<metadata>
Created by potrace 1.14, written by Peter Selinger 2001-2017
</metadata>
<g transform="translate(0.000000,223.000000) scale(0.100000,-0.100000)"
fill="#000000" stroke="none">
<path d="M830 2186 c0 -3 21 -17 48 -30 60 -32 113 -83 159 -154 41 -64 203
-390 203 -409 0 -7 -19 -22 -42 -34 -71 -36 -72 -53 -6 -63 44 -6 409 -36 441
-36 20 0 62 63 186 274 73 126 97 186 72 186 -4 0 -37 -13 -72 -29 l-64 -29
-57 111 c-66 127 -95 161 -158 191 -42 19 -65 21 -377 24 -183 2 -333 1 -333
-2z"/>
<path d="M660 2117 c-43 -15 -73 -55 -213 -278 l-107 -173 22 -22 c23 -22 411
-284 421 -284 3 0 23 28 45 63 22 34 81 126 131 204 50 79 91 150 91 159 0 33
-95 190 -149 248 -84 89 -154 113 -241 83z"/>
<path d="M1710 1431 c-123 -71 -226 -133 -227 -138 -2 -6 55 -106 126 -224
l129 -214 155 0 155 0 58 40 c84 58 116 103 121 167 l5 53 -137 210 c-75 116
-142 216 -148 222 -10 10 -61 -15 -237 -116z"/>
<path d="M100 1411 c-87 -8 -91 -27 -16 -72 31 -19 56 -38 56 -44 0 -6 -25
-51 -56 -101 -95 -149 -101 -180 -58 -267 14 -29 92 -168 173 -311 l146 -258
6 83 c3 46 10 93 14 104 9 21 253 416 278 449 13 18 15 18 65 -10 92 -52 89
-31 -40 213 l-116 218 -193 1 c-107 0 -223 -2 -259 -5z"/>
<path d="M1422 848 c-51 -85 -204 -351 -214 -372 -9 -22 2 -43 113 -213 142
-218 146 -223 171 -223 16 0 18 9 18 75 l0 75 116 0 c132 0 190 12 227 45 23
23 68 97 162 270 21 39 73 134 116 213 44 78 79 144 79 147 0 3 -21 -10 -47
-29 -90 -64 -119 -69 -415 -74 l-267 -4 -3 58 c-4 71 -25 83 -56 32z"/>
<path d="M523 658 c-33 -51 -67 -112 -76 -136 -24 -60 -23 -194 2 -249 33 -71
41 -73 361 -73 l280 0 -2 273 -3 272 -251 3 -251 3 -60 -93z"/>
</g>
</svg>
